<?xml version="1.0" encoding="UTF-8" standalone="no"?>
<!-- Created with Inkscape (http://www.inkscape.org/) -->
<svg
   xmlns:svg="http://www.w3.org/2000/svg"
   xmlns="http://www.w3.org/2000/svg"
   version="1.0"
   width="407.39999"
   height="549.29999"
   id="svg2403"
   xml:space="preserve"><defs
     id="defs2406" /><g
     transform="matrix(1.25,0,0,-1.25,0,549.3)"
     id="g2412"><path
       d="M 1.828125,0 L 1.828125,-17.179688 L 4.1601562,-17.179688 L 13.183594,-3.6914062 L 13.183594,-17.179688 L 15.363281,-17.179688 L 15.363281,0 L 13.03125,0 L 4.0078125,-13.5 L 4.0078125,0 L 1.828125,0 z"
       transform="matrix(1,0,0,-1,166.56,304.32)"
       id="text2414" /><path
       d="M 1.921875,0 L 1.921875,-17.179688 L 4.1953125,-17.179688 L 4.1953125,-10.125 L 13.125,-10.125 L 13.125,-17.179688 L 15.398438,-17.179688 L 15.398438,0 L 13.125,0 L 13.125,-8.0976562 L 4.1953125,-8.0976562 L 4.1953125,0 L 1.921875,0 z"
       transform="matrix(1,0,0,-1,166.56,277.44)"
       id="text2418" /><path
       d="M 1.828125,0 L 1.828125,-17.179688 L 4.1601562,-17.179688 L 13.183594,-3.6914062 L 13.183594,-17.179688 L 15.363281,-17.179688 L 15.363281,0 L 13.03125,0 L 4.0078125,-13.5 L 4.0078125,0 L 1.828125,0 z"
       transform="matrix(1,0,0,-1,166.56,185.52)"
       id="text2422" /><path
       d="M 1.921875,0 L 1.921875,-17.179688 L 4.1953125,-17.179688 L 4.1953125,-10.125 L 13.125,-10.125 L 13.125,-17.179688 L 15.398438,-17.179688 L 15.398438,0 L 13.125,0 L 13.125,-8.0976562 L 4.1953125,-8.0976562 L 4.1953125,0 L 1.921875,0 z"
       transform="matrix(1,0,0,-1,166.56,158.64)"
       id="text2426" /><path
       d="M 1.828125,0 L 1.828125,-17.179688 L 4.1601562,-17.179688 L 13.183594,-3.6914062 L 13.183594,-17.179688 L 15.363281,-17.179688 L 15.363281,0 L 13.03125,0 L 4.0078125,-13.5 L 4.0078125,0 L 1.828125,0 z"
       transform="matrix(1,0,0,-1,171.84,71.04)"
       id="text2430" /><path
       d="M 1.921875,0 L 1.921875,-17.179688 L 4.1953125,-17.179688 L 4.1953125,-10.125 L 13.125,-10.125 L 13.125,-17.179688 L 15.398438,-17.179688 L 15.398438,0 L 13.125,0 L 13.125,-8.0976562 L 4.1953125,-8.0976562 L 4.1953125,0 L 1.921875,0 z"
       transform="matrix(1,0,0,-1,171.84,44.16)"
       id="text2434" /><path
       d="M 1.1601562,-8.3671875 C 1.1601551,-11.218739 1.9257793,-13.451158 3.4570312,-15.064453 C 4.9882763,-16.677718 6.9648368,-17.484358 9.3867188,-17.484375 C 10.972645,-17.484358 12.402331,-17.105452 13.675781,-16.347656 C 14.949204,-15.589828 15.919906,-14.533189 16.587891,-13.177734 C 17.255842,-11.822254 17.589826,-10.285146 17.589844,-8.5664062 C 17.589826,-6.8242119 17.238264,-5.2656197 16.535156,-3.890625 C 15.832015,-2.5156225 14.835923,-1.4746079 13.546875,-0.76757812 C 12.2578,-0.060546814 10.867177,0.29296846 9.375,0.29296875 C 7.7578047,0.29296846 6.3124937,-0.097656152 5.0390625,-0.87890625 C 3.7656212,-1.6601546 2.8007784,-2.7265598 2.1445312,-4.078125 C 1.4882798,-5.4296821 1.1601551,-6.8593681 1.1601562,-8.3671875 L 1.1601562,-8.3671875 z M 3.5039062,-8.3320312 C 3.5039027,-6.2617125 4.0605428,-4.6308547 5.1738281,-3.4394531 C 6.2871031,-2.2480446 7.6835861,-1.6523421 9.3632812,-1.6523438 C 11.074208,-1.6523421 12.482409,-2.253904 13.587891,-3.4570312 C 14.693345,-4.6601516 15.246079,-6.3671811 15.246094,-8.578125 C 15.246079,-9.9765525 15.009751,-11.197254 14.537109,-12.240234 C 14.064439,-13.28319 13.373034,-14.091783 12.462891,-14.666016 C 11.552723,-15.240219 10.531239,-15.527328 9.3984375,-15.527344 C 7.7890547,-15.527328 6.4042905,-14.974594 5.2441406,-13.869141 C 4.0839803,-12.763659 3.5039027,-10.917958 3.5039062,-8.3320312 L 3.5039062,-8.3320312 z"
       transform="matrix(1,0,0,-1,59.76,118.56)"
       id="text2438" /><path
       d="M 1.1601562,-8.3671875 C 1.1601551,-11.218739 1.9257793,-13.451158 3.4570312,-15.064453 C 4.9882763,-16.677718 6.9648368,-17.484358 9.3867188,-17.484375 C 10.972645,-17.484358 12.402331,-17.105452 13.675781,-16.347656 C 14.949204,-15.589828 15.919906,-14.533189 16.587891,-13.177734 C 17.255842,-11.822254 17.589826,-10.285146 17.589844,-8.5664062 C 17.589826,-6.8242119 17.238264,-5.2656197 16.535156,-3.890625 C 15.832015,-2.5156225 14.835923,-1.4746079 13.546875,-0.76757812 C 12.2578,-0.060546814 10.867177,0.29296846 9.375,0.29296875 C 7.7578047,0.29296846 6.3124937,-0.097656152 5.0390625,-0.87890625 C 3.7656212,-1.6601546 2.8007784,-2.7265598 2.1445312,-4.078125 C 1.4882798,-5.4296821 1.1601551,-6.8593681 1.1601562,-8.3671875 L 1.1601562,-8.3671875 z M 3.5039062,-8.3320312 C 3.5039027,-6.2617125 4.0605428,-4.6308547 5.1738281,-3.4394531 C 6.2871031,-2.2480446 7.6835861,-1.6523421 9.3632812,-1.6523438 C 11.074208,-1.6523421 12.482409,-2.253904 13.587891,-3.4570312 C 14.693345,-4.6601516 15.246079,-6.3671811 15.246094,-8.578125 C 15.246079,-9.9765525 15.009751,-11.197254 14.537109,-12.240234 C 14.064439,-13.28319 13.373034,-14.091783 12.462891,-14.666016 C 11.552723,-15.240219 10.531239,-15.527328 9.3984375,-15.527344 C 7.7890547,-15.527328 6.4042905,-14.974594 5.2441406,-13.869141 C 4.0839803,-12.763659 3.5039027,-10.917958 3.5039062,-8.3320312 L 3.5039062,-8.3320312 z"
       transform="matrix(1,0,0,-1,25.44,178.08)"
       id="text2442" /><path
       d="M 1.921875,0 L 1.921875,-17.179688 L 4.1953125,-17.179688 L 4.1953125,-10.125 L 13.125,-10.125 L 13.125,-17.179688 L 15.398438,-17.179688 L 15.398438,0 L 13.125,0 L 13.125,-8.0976562 L 4.1953125,-8.0976562 L 4.1953125,0 L 1.921875,0 z"
       transform="matrix(1,0,0,-1,8.16,178.08)"
       id="text2446" /><path
       d="M 1.1601562,-8.3671875 C 1.1601551,-11.218739 1.9257793,-13.451158 3.4570312,-15.064453 C 4.9882763,-16.677718 6.9648368,-17.484358 9.3867188,-17.484375 C 10.972645,-17.484358 12.402331,-17.105452 13.675781,-16.347656 C 14.949204,-15.589828 15.919906,-14.533189 16.587891,-13.177734 C 17.255842,-11.822254 17.589826,-10.285146 17.589844,-8.5664062 C 17.589826,-6.8242119 17.238264,-5.2656197 16.535156,-3.890625 C 15.832015,-2.5156225 14.835923,-1.4746079 13.546875,-0.76757812 C 12.2578,-0.060546814 10.867177,0.29296846 9.375,0.29296875 C 7.7578047,0.29296846 6.3124937,-0.097656152 5.0390625,-0.87890625 C 3.7656212,-1.6601546 2.8007784,-2.7265598 2.1445312,-4.078125 C 1.4882798,-5.4296821 1.1601551,-6.8593681 1.1601562,-8.3671875 L 1.1601562,-8.3671875 z M 3.5039062,-8.3320312 C 3.5039027,-6.2617125 4.0605428,-4.6308547 5.1738281,-3.4394531 C 6.2871031,-2.2480446 7.6835861,-1.6523421 9.3632812,-1.6523438 C 11.074208,-1.6523421 12.482409,-2.253904 13.587891,-3.4570312 C 14.693345,-4.6601516 15.246079,-6.3671811 15.246094,-8.578125 C 15.246079,-9.9765525 15.009751,-11.197254 14.537109,-12.240234 C 14.064439,-13.28319 13.373034,-14.091783 12.462891,-14.666016 C 11.552723,-15.240219 10.531239,-15.527328 9.3984375,-15.527344 C 7.7890547,-15.527328 6.4042905,-14.974594 5.2441406,-13.869141 C 4.0839803,-12.763659 3.5039027,-10.917958 3.5039062,-8.3320312 L 3.5039062,-8.3320312 z"
       transform="matrix(1,0,0,-1,25.44,257.28)"
       id="text2450" /><path
       d="M 1.921875,0 L 1.921875,-17.179688 L 4.1953125,-17.179688 L 4.1953125,-10.125 L 13.125,-10.125 L 13.125,-17.179688 L 15.398438,-17.179688 L 15.398438,0 L 13.125,0 L 13.125,-8.0976562 L 4.1953125,-8.0976562 L 4.1953125,0 L 1.921875,0 z"
       transform="matrix(1,0,0,-1,8.16,257.28)"
       id="text2454" /><path
       d="M 1.1601562,-8.3671875 C 1.1601551,-11.218739 1.9257793,-13.451158 3.4570312,-15.064453 C 4.9882763,-16.677718 6.9648368,-17.484358 9.3867188,-17.484375 C 10.972645,-17.484358 12.402331,-17.105452 13.675781,-16.347656 C 14.949204,-15.589828 15.919906,-14.533189 16.587891,-13.177734 C 17.255842,-11.822254 17.589826,-10.285146 17.589844,-8.5664062 C 17.589826,-6.8242119 17.238264,-5.2656197 16.535156,-3.890625 C 15.832015,-2.5156225 14.835923,-1.4746079 13.546875,-0.76757812 C 12.2578,-0.060546814 10.867177,0.29296846 9.375,0.29296875 C 7.7578047,0.29296846 6.3124937,-0.097656152 5.0390625,-0.87890625 C 3.7656212,-1.6601546 2.8007784,-2.7265598 2.1445312,-4.078125 C 1.4882798,-5.4296821 1.1601551,-6.8593681 1.1601562,-8.3671875 L 1.1601562,-8.3671875 z M 3.5039062,-8.3320312 C 3.5039027,-6.2617125 4.0605428,-4.6308547 5.1738281,-3.4394531 C 6.2871031,-2.2480446 7.6835861,-1.6523421 9.3632812,-1.6523438 C 11.074208,-1.6523421 12.482409,-2.253904 13.587891,-3.4570312 C 14.693345,-4.6601516 15.246079,-6.3671811 15.246094,-8.578125 C 15.246079,-9.9765525 15.009751,-11.197254 14.537109,-12.240234 C 14.064439,-13.28319 13.373034,-14.091783 12.462891,-14.666016 C 11.552723,-15.240219 10.531239,-15.527328 9.3984375,-15.527344 C 7.7890547,-15.527328 6.4042905,-14.974594 5.2441406,-13.869141 C 4.0839803,-12.763659 3.5039027,-10.917958 3.5039062,-8.3320312 L 3.5039062,-8.3320312 z"
       transform="matrix(1,0,0,-1,25.44,296.88)"
       id="text2458" /><path
       d="M 1.1601562,-8.3671875 C 1.1601551,-11.218739 1.9257793,-13.451158 3.4570312,-15.064453 C 4.9882763,-16.677718 6.9648368,-17.484358 9.3867188,-17.484375 C 10.972645,-17.484358 12.402331,-17.105452 13.675781,-16.347656 C 14.949204,-15.589828 15.919906,-14.533189 16.587891,-13.177734 C 17.255842,-11.822254 17.589826,-10.285146 17.589844,-8.5664062 C 17.589826,-6.8242119 17.238264,-5.2656197 16.535156,-3.890625 C 15.832015,-2.5156225 14.835923,-1.4746079 13.546875,-0.76757812 C 12.2578,-0.060546814 10.867177,0.29296846 9.375,0.29296875 C 7.7578047,0.29296846 6.3124937,-0.097656152 5.0390625,-0.87890625 C 3.7656212,-1.6601546 2.8007784,-2.7265598 2.1445312,-4.078125 C 1.4882798,-5.4296821 1.1601551,-6.8593681 1.1601562,-8.3671875 L 1.1601562,-8.3671875 z M 3.5039062,-8.3320312 C 3.5039027,-6.2617125 4.0605428,-4.6308547 5.1738281,-3.4394531 C 6.2871031,-2.2480446 7.6835861,-1.6523421 9.3632812,-1.6523438 C 11.074208,-1.6523421 12.482409,-2.253904 13.587891,-3.4570312 C 14.693345,-4.6601516 15.246079,-6.3671811 15.246094,-8.578125 C 15.246079,-9.9765525 15.009751,-11.197254 14.537109,-12.240234 C 14.064439,-13.28319 13.373034,-14.091783 12.462891,-14.666016 C 11.552723,-15.240219 10.531239,-15.527328 9.3984375,-15.527344 C 7.7890547,-15.527328 6.4042905,-14.974594 5.2441406,-13.869141 C 4.0839803,-12.763659 3.5039027,-10.917958 3.5039062,-8.3320312 L 3.5039062,-8.3320312 z"
       transform="matrix(1,0,0,-1,25.44,376.08)"
       id="text2462" /><path
       d="M 5.6132812,5.0507812 C 4.4492143,3.5820277 3.4648403,1.8632794 2.6601562,-0.10546875 C 1.8554669,-2.0742167 1.4531235,-4.1132771 1.453125,-6.2226562 C 1.4531235,-8.0820232 1.7539045,-9.8632714 2.3554688,-11.566406 C 3.0585907,-13.542955 4.1445271,-15.511703 5.6132812,-17.472656 L 7.125,-17.472656 C 6.1796813,-15.84764 5.5546819,-14.687485 5.25,-13.992188 C 4.7734327,-12.91405 4.3984331,-11.789051 4.125,-10.617188 C 3.7890587,-9.1562408 3.6210901,-7.6874923 3.6210938,-6.2109375 C 3.6210901,-2.4531225 4.7890577,1.3007799 7.125,5.0507812 L 5.6132812,5.0507812 z M 22.101375,-6.0234375 L 24.374813,-5.4492188 C 23.898234,-3.5820277 23.040813,-2.158201 21.802547,-1.1777344 C 20.564253,-0.19726543 19.050583,0.29296846 17.261531,0.29296875 C 15.409961,0.29296846 13.904104,-0.083984291 12.743953,-0.83789062 C 11.583793,-1.5917953 10.700982,-2.6835911 10.095516,-4.1132812 C 9.4900455,-5.5429632 9.1873114,-7.0781179 9.1873126,-8.71875 C 9.1873114,-10.507802 9.5291079,-12.068347 10.212703,-13.400391 C 10.896294,-14.732407 11.868949,-15.744125 13.130672,-16.435547 C 14.392384,-17.126936 15.781055,-17.472639 17.296688,-17.472656 C 19.015427,-17.472639 20.460738,-17.035139 21.632625,-16.160156 C 22.804485,-15.285141 23.620891,-14.054673 24.081844,-12.46875 L 21.843563,-11.941406 C 21.445112,-13.191393 20.866987,-14.101548 20.109188,-14.671875 C 19.351364,-15.242172 18.39824,-15.527328 17.249813,-15.527344 C 15.929492,-15.527328 14.825978,-15.210922 13.939266,-14.578125 C 13.052542,-13.945299 12.429496,-13.09569 12.070125,-12.029297 C 11.710746,-10.96288 11.531059,-9.8632714 11.531063,-8.7304688 C 11.531059,-7.269524 11.743949,-5.9941346 12.169734,-4.9042969 C 12.595511,-3.8144493 13.25762,-2.999997 14.156063,-2.4609375 C 15.054493,-1.9218731 16.027148,-1.6523421 17.074031,-1.6523438 C 18.347458,-1.6523421 19.425582,-2.0195292 20.308406,-2.7539062 C 21.191206,-3.4882778 21.788861,-4.5781204 22.101375,-6.0234375 L 22.101375,-6.0234375 z M 26.480156,-8.3671875 C 26.480155,-11.218739 27.245779,-13.451158 28.777031,-15.064453 C 30.308276,-16.677718 32.284836,-17.484358 34.706718,-17.484375 C 36.292645,-17.484358 37.722331,-17.105452 38.995781,-16.347656 C 40.269203,-15.589828 41.239906,-14.533189 41.90789,-13.177734 C 42.575842,-11.822254 42.909826,-10.285146 42.909843,-8.5664062 C 42.909826,-6.8242119 42.558264,-5.2656197 41.855156,-3.890625 C 41.152015,-2.5156225 40.155922,-1.4746079 38.866875,-0.76757812 C 37.5778,-0.060546814 36.187176,0.29296846 34.695,0.29296875 C 33.077804,0.29296846 31.632493,-0.097656152 30.359062,-0.87890625 C 29.085621,-1.6601546 28.120778,-2.7265598 27.464531,-4.078125 C 26.808279,-5.4296821 26.480155,-6.8593681 26.480156,-8.3671875 L 26.480156,-8.3671875 z M 28.823906,-8.3320312 C 28.823902,-6.2617125 29.380543,-4.6308547 30.493828,-3.4394531 C 31.607103,-2.2480446 33.003586,-1.6523421 34.683281,-1.6523438 C 36.394207,-1.6523421 37.802409,-2.253904 38.90789,-3.4570312 C 40.013344,-4.6601516 40.566078,-6.3671811 40.566093,-8.578125 C 40.566078,-9.9765525 40.32975,-11.197254 39.857109,-12.240234 C 39.384439,-13.28319 38.693033,-14.091783 37.78289,-14.666016 C 36.872723,-15.240219 35.851239,-15.527328 34.718437,-15.527344 C 33.109054,-15.527328 31.72429,-14.974594 30.56414,-13.869141 C 29.40398,-12.763659 28.823902,-10.917958 28.823906,-8.3320312 L 28.823906,-8.3320312 z M 45.152157,-8.3671875 C 45.152156,-11.218739 45.91778,-13.451158 47.449032,-15.064453 C 48.980277,-16.677718 50.956837,-17.484358 53.378719,-17.484375 C 54.964646,-17.484358 56.394332,-17.105452 57.667782,-16.347656 C 58.941204,-15.589828 59.911907,-14.533189 60.579891,-13.177734 C 61.247843,-11.822254 61.581827,-10.285146 61.581844,-8.5664062 C 61.581827,-6.8242119 61.230265,-5.2656197 60.527157,-3.890625 C 59.824016,-2.5156225 58.827923,-1.4746079 57.538876,-0.76757812 C 56.249801,-0.060546814 54.859177,0.29296846 53.367001,0.29296875 C 51.749805,0.29296846 50.304494,-0.097656152 49.031063,-0.87890625 C 47.757622,-1.6601546 46.792779,-2.7265598 46.136532,-4.078125 C 45.48028,-5.4296821 45.152156,-6.8593681 45.152157,-8.3671875 L 45.152157,-8.3671875 z M 47.495907,-8.3320312 C 47.495903,-6.2617125 48.052543,-4.6308547 49.165829,-3.4394531 C 50.279104,-2.2480446 51.675587,-1.6523421 53.355282,-1.6523438 C 55.066208,-1.6523421 56.47441,-2.253904 57.579891,-3.4570312 C 58.685345,-4.6601516 59.238079,-6.3671811 59.238094,-8.578125 C 59.238079,-9.9765525 59.001751,-11.197254 58.52911,-12.240234 C 58.05644,-13.28319 57.365034,-14.091783 56.454891,-14.666016 C 55.544723,-15.240219 54.52324,-15.527328 53.390438,-15.527344 C 51.781055,-15.527328 50.396291,-14.974594 49.236141,-13.869141 C 48.075981,-12.763659 47.495903,-10.917958 47.495907,-8.3320312 L 47.495907,-8.3320312 z M 64.585876,0 L 64.585876,-17.179688 L 66.859314,-17.179688 L 66.859314,-10.125 L 75.789001,-10.125 L 75.789001,-17.179688 L 78.062439,-17.179688 L 78.062439,0 L 75.789001,0 L 75.789001,-8.0976562 L 66.859314,-8.0976562 L 66.859314,0 L 64.585876,0 z M 82.956841,5.0507812 L 81.445122,5.0507812 C 83.781055,1.3007799 84.949023,-2.4531225 84.949028,-6.2109375 C 84.949023,-7.6796798 84.781054,-9.1367096 84.445122,-10.582031 C 84.179493,-11.753894 83.808399,-12.878893 83.331841,-13.957031 C 83.02715,-14.660142 82.398244,-15.832015 81.445122,-17.472656 L 82.956841,-17.472656 C 84.425586,-15.511703 85.511522,-13.542955 86.214653,-11.566406 C 86.816209,-9.8632714 87.11699,-8.0820232 87.116997,-6.2226562 C 87.11699,-4.1132771 86.712693,-2.0742167 85.904106,-0.10546875 C 85.095507,1.8632794 84.113086,3.5820277 82.956841,5.0507812 L 82.956841,5.0507812 z"
       transform="matrix(1,0,0,-1,221.52,336.48)"
       id="text2466" /><path
       d="M 5.6132812,5.0507812 C 4.4492143,3.5820277 3.4648403,1.8632794 2.6601562,-0.10546875 C 1.8554669,-2.0742167 1.4531235,-4.1132771 1.453125,-6.2226562 C 1.4531235,-8.0820232 1.7539045,-9.8632714 2.3554688,-11.566406 C 3.0585907,-13.542955 4.1445271,-15.511703 5.6132812,-17.472656 L 7.125,-17.472656 C 6.1796813,-15.84764 5.5546819,-14.687485 5.25,-13.992188 C 4.7734327,-12.91405 4.3984331,-11.789051 4.125,-10.617188 C 3.7890587,-9.1562408 3.6210901,-7.6874923 3.6210938,-6.2109375 C 3.6210901,-2.4531225 4.7890577,1.3007799 7.125,5.0507812 L 5.6132812,5.0507812 z M 22.101375,-6.0234375 L 24.374813,-5.4492188 C 23.898234,-3.5820277 23.040813,-2.158201 21.802547,-1.1777344 C 20.564253,-0.19726543 19.050583,0.29296846 17.261531,0.29296875 C 15.409961,0.29296846 13.904104,-0.083984291 12.743953,-0.83789062 C 11.583793,-1.5917953 10.700982,-2.6835911 10.095516,-4.1132812 C 9.4900455,-5.5429632 9.1873114,-7.0781179 9.1873126,-8.71875 C 9.1873114,-10.507802 9.5291079,-12.068347 10.212703,-13.400391 C 10.896294,-14.732407 11.868949,-15.744125 13.130672,-16.435547 C 14.392384,-17.126936 15.781055,-17.472639 17.296688,-17.472656 C 19.015427,-17.472639 20.460738,-17.035139 21.632625,-16.160156 C 22.804485,-15.285141 23.620891,-14.054673 24.081844,-12.46875 L 21.843563,-11.941406 C 21.445112,-13.191393 20.866987,-14.101548 20.109188,-14.671875 C 19.351364,-15.242172 18.39824,-15.527328 17.249813,-15.527344 C 15.929492,-15.527328 14.825978,-15.210922 13.939266,-14.578125 C 13.052542,-13.945299 12.429496,-13.09569 12.070125,-12.029297 C 11.710746,-10.96288 11.531059,-9.8632714 11.531063,-8.7304688 C 11.531059,-7.269524 11.743949,-5.9941346 12.169734,-4.9042969 C 12.595511,-3.8144493 13.25762,-2.999997 14.156063,-2.4609375 C 15.054493,-1.9218731 16.027148,-1.6523421 17.074031,-1.6523438 C 18.347458,-1.6523421 19.425582,-2.0195292 20.308406,-2.7539062 C 21.191206,-3.4882778 21.788861,-4.5781204 22.101375,-6.0234375 L 22.101375,-6.0234375 z M 26.480156,-8.3671875 C 26.480155,-11.218739 27.245779,-13.451158 28.777031,-15.064453 C 30.308276,-16.677718 32.284836,-17.484358 34.706718,-17.484375 C 36.292645,-17.484358 37.722331,-17.105452 38.995781,-16.347656 C 40.269203,-15.589828 41.239906,-14.533189 41.90789,-13.177734 C 42.575842,-11.822254 42.909826,-10.285146 42.909843,-8.5664062 C 42.909826,-6.8242119 42.558264,-5.2656197 41.855156,-3.890625 C 41.152015,-2.5156225 40.155922,-1.4746079 38.866875,-0.76757812 C 37.5778,-0.060546814 36.187176,0.29296846 34.695,0.29296875 C 33.077804,0.29296846 31.632493,-0.097656152 30.359062,-0.87890625 C 29.085621,-1.6601546 28.120778,-2.7265598 27.464531,-4.078125 C 26.808279,-5.4296821 26.480155,-6.8593681 26.480156,-8.3671875 L 26.480156,-8.3671875 z M 28.823906,-8.3320312 C 28.823902,-6.2617125 29.380543,-4.6308547 30.493828,-3.4394531 C 31.607103,-2.2480446 33.003586,-1.6523421 34.683281,-1.6523438 C 36.394207,-1.6523421 37.802409,-2.253904 38.90789,-3.4570312 C 40.013344,-4.6601516 40.566078,-6.3671811 40.566093,-8.578125 C 40.566078,-9.9765525 40.32975,-11.197254 39.857109,-12.240234 C 39.384439,-13.28319 38.693033,-14.091783 37.78289,-14.666016 C 36.872723,-15.240219 35.851239,-15.527328 34.718437,-15.527344 C 33.109054,-15.527328 31.72429,-14.974594 30.56414,-13.869141 C 29.40398,-12.763659 28.823902,-10.917958 28.823906,-8.3320312 L 28.823906,-8.3320312 z M 45.152157,-8.3671875 C 45.152156,-11.218739 45.91778,-13.451158 47.449032,-15.064453 C 48.980277,-16.677718 50.956837,-17.484358 53.378719,-17.484375 C 54.964646,-17.484358 56.394332,-17.105452 57.667782,-16.347656 C 58.941204,-15.589828 59.911907,-14.533189 60.579891,-13.177734 C 61.247843,-11.822254 61.581827,-10.285146 61.581844,-8.5664062 C 61.581827,-6.8242119 61.230265,-5.2656197 60.527157,-3.890625 C 59.824016,-2.5156225 58.827923,-1.4746079 57.538876,-0.76757812 C 56.249801,-0.060546814 54.859177,0.29296846 53.367001,0.29296875 C 51.749805,0.29296846 50.304494,-0.097656152 49.031063,-0.87890625 C 47.757622,-1.6601546 46.792779,-2.7265598 46.136532,-4.078125 C 45.48028,-5.4296821 45.152156,-6.8593681 45.152157,-8.3671875 L 45.152157,-8.3671875 z M 47.495907,-8.3320312 C 47.495903,-6.2617125 48.052543,-4.6308547 49.165829,-3.4394531 C 50.279104,-2.2480446 51.675587,-1.6523421 53.355282,-1.6523438 C 55.066208,-1.6523421 56.47441,-2.253904 57.579891,-3.4570312 C 58.685345,-4.6601516 59.238079,-6.3671811 59.238094,-8.578125 C 59.238079,-9.9765525 59.001751,-11.197254 58.52911,-12.240234 C 58.05644,-13.28319 57.365034,-14.091783 56.454891,-14.666016 C 55.544723,-15.240219 54.52324,-15.527328 53.390438,-15.527344 C 51.781055,-15.527328 50.396291,-14.974594 49.236141,-13.869141 C 48.075981,-12.763659 47.495903,-10.917958 47.495907,-8.3320312 L 47.495907,-8.3320312 z M 64.585876,0 L 64.585876,-17.179688 L 66.859314,-17.179688 L 66.859314,-10.125 L 75.789001,-10.125 L 75.789001,-17.179688 L 78.062439,-17.179688 L 78.062439,0 L 75.789001,0 L 75.789001,-8.0976562 L 66.859314,-8.0976562 L 66.859314,0 L 64.585876,0 z M 82.956841,5.0507812 L 81.445122,5.0507812 C 83.781055,1.3007799 84.949023,-2.4531225 84.949028,-6.2109375 C 84.949023,-7.6796798 84.781054,-9.1367096 84.445122,-10.582031 C 84.179493,-11.753894 83.808399,-12.878893 83.331841,-13.957031 C 83.02715,-14.660142 82.398244,-15.832015 81.445122,-17.472656 L 82.956841,-17.472656 C 84.425586,-15.511703 85.511522,-13.542955 86.214653,-11.566406 C 86.816209,-9.8632714 87.11699,-8.0820232 87.116997,-6.2226562 C 87.11699,-4.1132771 86.712693,-2.0742167 85.904106,-0.10546875 C 85.095507,1.8632794 84.113086,3.5820277 82.956841,5.0507812 L 82.956841,5.0507812 z"
       transform="matrix(1,0,0,-1,221.52,217.68)"
       id="text2470" /><path
       d="M 5.6132812,5.0507812 C 4.4492143,3.5820277 3.4648403,1.8632794 2.6601562,-0.10546875 C 1.8554669,-2.0742167 1.4531235,-4.1132771 1.453125,-6.2226562 C 1.4531235,-8.0820232 1.7539045,-9.8632714 2.3554688,-11.566406 C 3.0585907,-13.542955 4.1445271,-15.511703 5.6132812,-17.472656 L 7.125,-17.472656 C 6.1796813,-15.84764 5.5546819,-14.687485 5.25,-13.992188 C 4.7734327,-12.91405 4.3984331,-11.789051 4.125,-10.617188 C 3.7890587,-9.1562408 3.6210901,-7.6874923 3.6210938,-6.2109375 C 3.6210901,-2.4531225 4.7890577,1.3007799 7.125,5.0507812 L 5.6132812,5.0507812 z M 22.101375,-6.0234375 L 24.374813,-5.4492188 C 23.898234,-3.5820277 23.040813,-2.158201 21.802547,-1.1777344 C 20.564253,-0.19726543 19.050583,0.29296846 17.261531,0.29296875 C 15.409961,0.29296846 13.904104,-0.083984291 12.743953,-0.83789062 C 11.583793,-1.5917953 10.700982,-2.6835911 10.095516,-4.1132812 C 9.4900455,-5.5429632 9.1873114,-7.0781179 9.1873126,-8.71875 C 9.1873114,-10.507802 9.5291079,-12.068347 10.212703,-13.400391 C 10.896294,-14.732407 11.868949,-15.744125 13.130672,-16.435547 C 14.392384,-17.126936 15.781055,-17.472639 17.296688,-17.472656 C 19.015427,-17.472639 20.460738,-17.035139 21.632625,-16.160156 C 22.804485,-15.285141 23.620891,-14.054673 24.081844,-12.46875 L 21.843563,-11.941406 C 21.445112,-13.191393 20.866987,-14.101548 20.109188,-14.671875 C 19.351364,-15.242172 18.39824,-15.527328 17.249813,-15.527344 C 15.929492,-15.527328 14.825978,-15.210922 13.939266,-14.578125 C 13.052542,-13.945299 12.429496,-13.09569 12.070125,-12.029297 C 11.710746,-10.96288 11.531059,-9.8632714 11.531063,-8.7304688 C 11.531059,-7.269524 11.743949,-5.9941346 12.169734,-4.9042969 C 12.595511,-3.8144493 13.25762,-2.999997 14.156063,-2.4609375 C 15.054493,-1.9218731 16.027148,-1.6523421 17.074031,-1.6523438 C 18.347458,-1.6523421 19.425582,-2.0195292 20.308406,-2.7539062 C 21.191206,-3.4882778 21.788861,-4.5781204 22.101375,-6.0234375 L 22.101375,-6.0234375 z M 26.480156,-8.3671875 C 26.480155,-11.218739 27.245779,-13.451158 28.777031,-15.064453 C 30.308276,-16.677718 32.284836,-17.484358 34.706718,-17.484375 C 36.292645,-17.484358 37.722331,-17.105452 38.995781,-16.347656 C 40.269203,-15.589828 41.239906,-14.533189 41.90789,-13.177734 C 42.575842,-11.822254 42.909826,-10.285146 42.909843,-8.5664062 C 42.909826,-6.8242119 42.558264,-5.2656197 41.855156,-3.890625 C 41.152015,-2.5156225 40.155922,-1.4746079 38.866875,-0.76757812 C 37.5778,-0.060546814 36.187176,0.29296846 34.695,0.29296875 C 33.077804,0.29296846 31.632493,-0.097656152 30.359062,-0.87890625 C 29.085621,-1.6601546 28.120778,-2.7265598 27.464531,-4.078125 C 26.808279,-5.4296821 26.480155,-6.8593681 26.480156,-8.3671875 L 26.480156,-8.3671875 z M 28.823906,-8.3320312 C 28.823902,-6.2617125 29.380543,-4.6308547 30.493828,-3.4394531 C 31.607103,-2.2480446 33.003586,-1.6523421 34.683281,-1.6523438 C 36.394207,-1.6523421 37.802409,-2.253904 38.90789,-3.4570312 C 40.013344,-4.6601516 40.566078,-6.3671811 40.566093,-8.578125 C 40.566078,-9.9765525 40.32975,-11.197254 39.857109,-12.240234 C 39.384439,-13.28319 38.693033,-14.091783 37.78289,-14.666016 C 36.872723,-15.240219 35.851239,-15.527328 34.718437,-15.527344 C 33.109054,-15.527328 31.72429,-14.974594 30.56414,-13.869141 C 29.40398,-12.763659 28.823902,-10.917958 28.823906,-8.3320312 L 28.823906,-8.3320312 z M 45.152157,-8.3671875 C 45.152156,-11.218739 45.91778,-13.451158 47.449032,-15.064453 C 48.980277,-16.677718 50.956837,-17.484358 53.378719,-17.484375 C 54.964646,-17.484358 56.394332,-17.105452 57.667782,-16.347656 C 58.941204,-15.589828 59.911907,-14.533189 60.579891,-13.177734 C 61.247843,-11.822254 61.581827,-10.285146 61.581844,-8.5664062 C 61.581827,-6.8242119 61.230265,-5.2656197 60.527157,-3.890625 C 59.824016,-2.5156225 58.827923,-1.4746079 57.538876,-0.76757812 C 56.249801,-0.060546814 54.859177,0.29296846 53.367001,0.29296875 C 51.749805,0.29296846 50.304494,-0.097656152 49.031063,-0.87890625 C 47.757622,-1.6601546 46.792779,-2.7265598 46.136532,-4.078125 C 45.48028,-5.4296821 45.152156,-6.8593681 45.152157,-8.3671875 L 45.152157,-8.3671875 z M 47.495907,-8.3320312 C 47.495903,-6.2617125 48.052543,-4.6308547 49.165829,-3.4394531 C 50.279104,-2.2480446 51.675587,-1.6523421 53.355282,-1.6523438 C 55.066208,-1.6523421 56.47441,-2.253904 57.579891,-3.4570312 C 58.685345,-4.6601516 59.238079,-6.3671811 59.238094,-8.578125 C 59.238079,-9.9765525 59.001751,-11.197254 58.52911,-12.240234 C 58.05644,-13.28319 57.365034,-14.091783 56.454891,-14.666016 C 55.544723,-15.240219 54.52324,-15.527328 53.390438,-15.527344 C 51.781055,-15.527328 50.396291,-14.974594 49.236141,-13.869141 C 48.075981,-12.763659 47.495903,-10.917958 47.495907,-8.3320312 L 47.495907,-8.3320312 z M 64.585876,0 L 64.585876,-17.179688 L 66.859314,-17.179688 L 66.859314,-10.125 L 75.789001,-10.125 L 75.789001,-17.179688 L 78.062439,-17.179688 L 78.062439,0 L 75.789001,0 L 75.789001,-8.0976562 L 66.859314,-8.0976562 L 66.859314,0 L 64.585876,0 z M 82.956841,5.0507812 L 81.445122,5.0507812 C 83.781055,1.3007799 84.949023,-2.4531225 84.949028,-6.2109375 C 84.949023,-7.6796798 84.781054,-9.1367096 84.445122,-10.582031 C 84.179493,-11.753894 83.808399,-12.878893 83.331841,-13.957031 C 83.02715,-14.660142 82.398244,-15.832015 81.445122,-17.472656 L 82.956841,-17.472656 C 84.425586,-15.511703 85.511522,-13.542955 86.214653,-11.566406 C 86.816209,-9.8632714 87.11699,-8.0820232 87.116997,-6.2226562 C 87.11699,-4.1132771 86.712693,-2.0742167 85.904106,-0.10546875 C 85.095507,1.8632794 84.113086,3.5820277 82.956841,5.0507812 L 82.956841,5.0507812 z"
       transform="matrix(1,0,0,-1,223.2,109.44)"
       id="text2474" /><path
       d="M 1.1601562,-8.3671875 C 1.1601551,-11.218739 1.9257793,-13.451158 3.4570312,-15.064453 C 4.9882763,-16.677718 6.9648368,-17.484358 9.3867188,-17.484375 C 10.972645,-17.484358 12.402331,-17.105452 13.675781,-16.347656 C 14.949204,-15.589828 15.919906,-14.533189 16.587891,-13.177734 C 17.255842,-11.822254 17.589826,-10.285146 17.589844,-8.5664062 C 17.589826,-6.8242119 17.238264,-5.2656197 16.535156,-3.890625 C 15.832015,-2.5156225 14.835923,-1.4746079 13.546875,-0.76757812 C 12.2578,-0.060546814 10.867177,0.29296846 9.375,0.29296875 C 7.7578047,0.29296846 6.3124937,-0.097656152 5.0390625,-0.87890625 C 3.7656212,-1.6601546 2.8007784,-2.7265598 2.1445312,-4.078125 C 1.4882798,-5.4296821 1.1601551,-6.8593681 1.1601562,-8.3671875 L 1.1601562,-8.3671875 z M 3.5039062,-8.3320312 C 3.5039027,-6.2617125 4.0605428,-4.6308547 5.1738281,-3.4394531 C 6.2871031,-2.2480446 7.6835861,-1.6523421 9.3632812,-1.6523438 C 11.074208,-1.6523421 12.482409,-2.253904 13.587891,-3.4570312 C 14.693345,-4.6601516 15.246079,-6.3671811 15.246094,-8.578125 C 15.246079,-9.9765525 15.009751,-11.197254 14.537109,-12.240234 C 14.064439,-13.28319 13.373034,-14.091783 12.462891,-14.666016 C 11.552723,-15.240219 10.531239,-15.527328 9.3984375,-15.527344 C 7.7890547,-15.527328 6.4042905,-14.974594 5.2441406,-13.869141 C 4.0839803,-12.763659 3.5039027,-10.917958 3.5039062,-8.3320312 L 3.5039062,-8.3320312 z"
       transform="matrix(1,0,0,-1,65.28,65.04)"
       id="text2478" /><path
       d="M 1.1601562,-8.3671875 C 1.1601551,-11.218739 1.9257793,-13.451158 3.4570312,-15.064453 C 4.9882763,-16.677718 6.9648368,-17.484358 9.3867188,-17.484375 C 10.972645,-17.484358 12.402331,-17.105452 13.675781,-16.347656 C 14.949204,-15.589828 15.919906,-14.533189 16.587891,-13.177734 C 17.255842,-11.822254 17.589826,-10.285146 17.589844,-8.5664062 C 17.589826,-6.8242119 17.238264,-5.2656197 16.535156,-3.890625 C 15.832015,-2.5156225 14.835923,-1.4746079 13.546875,-0.76757812 C 12.2578,-0.060546814 10.867177,0.29296846 9.375,0.29296875 C 7.7578047,0.29296846 6.3124937,-0.097656152 5.0390625,-0.87890625 C 3.7656212,-1.6601546 2.8007784,-2.7265598 2.1445312,-4.078125 C 1.4882798,-5.4296821 1.1601551,-6.8593681 1.1601562,-8.3671875 L 1.1601562,-8.3671875 z M 3.5039062,-8.3320312 C 3.5039027,-6.2617125 4.0605428,-4.6308547 5.1738281,-3.4394531 C 6.2871031,-2.2480446 7.6835861,-1.6523421 9.3632812,-1.6523438 C 11.074208,-1.6523421 12.482409,-2.253904 13.587891,-3.4570312 C 14.693345,-4.6601516 15.246079,-6.3671811 15.246094,-8.578125 C 15.246079,-9.9765525 15.009751,-11.197254 14.537109,-12.240234 C 14.064439,-13.28319 13.373034,-14.091783 12.462891,-14.666016 C 11.552723,-15.240219 10.531239,-15.527328 9.3984375,-15.527344 C 7.7890547,-15.527328 6.4042905,-14.974594 5.2441406,-13.869141 C 4.0839803,-12.763659 3.5039027,-10.917958 3.5039062,-8.3320312 L 3.5039062,-8.3320312 z"
       transform="matrix(1,0,0,-1,111.12,13.92)"
       id="text2482" /><path
       d="M 1.921875,0 L 1.921875,-17.179688 L 4.1953125,-17.179688 L 4.1953125,-10.125 L 13.125,-10.125 L 13.125,-17.179688 L 15.398438,-17.179688 L 15.398438,0 L 13.125,0 L 13.125,-8.0976562 L 4.1953125,-8.0976562 L 4.1953125,0 L 1.921875,0 z"
       transform="matrix(1,0,0,-1,129.84,13.92)"
       id="text2486" /><path
       d="M 103.44,385.44 L 137.76,365.76"
       id="path2490"
       style="fill:none;stroke:#000000;stroke-width:1.44000006;stroke-linecap:round;stroke-linejoin:miter;stroke-miterlimit:10;stroke-dasharray:none;stroke-opacity:1" /><path
       d="M 102.96,378.24 L 131.76,361.68"
       id="path2492"
       style="fill:none;stroke:#000000;stroke-width:1.44000006;stroke-linecap:round;stroke-linejoin:miter;stroke-miterlimit:10;stroke-dasharray:none;stroke-opacity:1" /><path
       d="M 103.44,306.24 L 137.76,326.16"
       id="path2494"
       style="fill:none;stroke:#000000;stroke-width:1.44000006;stroke-linecap:round;stroke-linejoin:miter;stroke-miterlimit:10;stroke-dasharray:none;stroke-opacity:1" /><path
       d="M 102.96,313.44 L 131.76,330"
       id="path2496"
       style="fill:none;stroke:#000000;stroke-width:1.44000006;stroke-linecap:round;stroke-linejoin:miter;stroke-miterlimit:10;stroke-dasharray:none;stroke-opacity:1" /><path
       d="M 69.12,365.76 L 103.44,385.44"
       id="path2498"
       style="fill:none;stroke:#000000;stroke-width:1.67999995;stroke-linecap:round;stroke-linejoin:miter;stroke-miterlimit:10;stroke-dasharray:none;stroke-opacity:1" /><path
       d="M 69.12,326.16 L 103.44,306.24"
       id="path2500"
       style="fill:none;stroke:#000000;stroke-width:1.67999995;stroke-linecap:round;stroke-linejoin:miter;stroke-miterlimit:10;stroke-dasharray:none;stroke-opacity:1" /><path
       d="M 69.12,326.16 L 69.12,365.76"
       id="path2502"
       style="fill:none;stroke:#000000;stroke-width:1.67999995;stroke-linecap:round;stroke-linejoin:miter;stroke-miterlimit:10;stroke-dasharray:none;stroke-opacity:1" /><path
       d="M 175.44,378 L 137.76,365.76"
       id="path2504"
       style="fill:none;stroke:#000000;stroke-width:1.67999995;stroke-linecap:round;stroke-linejoin:miter;stroke-miterlimit:10;stroke-dasharray:none;stroke-opacity:1" /><path
       d="M 137.76,326.16 L 137.76,365.76"
       id="path2506"
       style="fill:none;stroke:#000000;stroke-width:1.67999995;stroke-linecap:round;stroke-linejoin:miter;stroke-miterlimit:10;stroke-dasharray:none;stroke-opacity:1" /><path
       d="M 198.72,345.84 L 175.44,378"
       id="path2508"
       style="fill:none;stroke:#000000;stroke-width:1.44000006;stroke-linecap:round;stroke-linejoin:miter;stroke-miterlimit:10;stroke-dasharray:none;stroke-opacity:1" /><path
       d="M 190.56,345.84 L 173.04,370.08"
       id="path2510"
       style="fill:none;stroke:#000000;stroke-width:1.44000006;stroke-linecap:round;stroke-linejoin:miter;stroke-miterlimit:10;stroke-dasharray:none;stroke-opacity:1" /><path
       d="M 163.92,317.52 L 137.76,326.16"
       id="path2512"
       style="fill:none;stroke:#000000;stroke-width:1.67999995;stroke-linecap:round;stroke-linejoin:miter;stroke-miterlimit:10;stroke-dasharray:none;stroke-opacity:1" /><path
       d="M 184.32,326.16 L 198.72,345.84"
       id="path2514"
       style="fill:none;stroke:#000000;stroke-width:1.67999995;stroke-linecap:round;stroke-linejoin:miter;stroke-miterlimit:10;stroke-dasharray:none;stroke-opacity:1" /><path
       d="M 137.76,246.96 L 103.44,266.64"
       id="path2516"
       style="fill:none;stroke:#000000;stroke-width:1.67999995;stroke-linecap:round;stroke-linejoin:miter;stroke-miterlimit:10;stroke-dasharray:none;stroke-opacity:1" /><path
       d="M 69.12,246.96 L 103.44,266.64"
       id="path2518"
       style="fill:none;stroke:#000000;stroke-width:1.44000006;stroke-linecap:round;stroke-linejoin:miter;stroke-miterlimit:10;stroke-dasharray:none;stroke-opacity:1" /><path
       d="M 75.12,242.88 L 103.92,259.44"
       id="path2520"
       style="fill:none;stroke:#000000;stroke-width:1.44000006;stroke-linecap:round;stroke-linejoin:miter;stroke-miterlimit:10;stroke-dasharray:none;stroke-opacity:1" /><path
       d="M 137.76,207.36 L 137.76,246.96"
       id="path2522"
       style="fill:none;stroke:#000000;stroke-width:1.44000006;stroke-linecap:round;stroke-linejoin:miter;stroke-miterlimit:10;stroke-dasharray:none;stroke-opacity:1" /><path
       d="M 131.28,210.48 L 131.28,243.84"
       id="path2524"
       style="fill:none;stroke:#000000;stroke-width:1.44000006;stroke-linecap:round;stroke-linejoin:miter;stroke-miterlimit:10;stroke-dasharray:none;stroke-opacity:1" /><path
       d="M 69.12,207.36 L 69.12,246.96"
       id="path2526"
       style="fill:none;stroke:#000000;stroke-width:1.67999995;stroke-linecap:round;stroke-linejoin:miter;stroke-miterlimit:10;stroke-dasharray:none;stroke-opacity:1" /><path
       d="M 103.44,187.44 L 137.76,207.36"
       id="path2528"
       style="fill:none;stroke:#000000;stroke-width:1.67999995;stroke-linecap:round;stroke-linejoin:miter;stroke-miterlimit:10;stroke-dasharray:none;stroke-opacity:1" /><path
       d="M 103.44,187.44 L 69.12,207.36"
       id="path2530"
       style="fill:none;stroke:#000000;stroke-width:1.44000006;stroke-linecap:round;stroke-linejoin:miter;stroke-miterlimit:10;stroke-dasharray:none;stroke-opacity:1" /><path
       d="M 103.92,194.64 L 75.12,211.2"
       id="path2532"
       style="fill:none;stroke:#000000;stroke-width:1.44000006;stroke-linecap:round;stroke-linejoin:miter;stroke-miterlimit:10;stroke-dasharray:none;stroke-opacity:1" /><path
       d="M 103.44,306.24 L 103.44,266.64"
       id="path2534"
       style="fill:none;stroke:#000000;stroke-width:1.67999995;stroke-linecap:round;stroke-linejoin:miter;stroke-miterlimit:10;stroke-dasharray:none;stroke-opacity:1" /><path
       d="M 103.44,187.44 L 103.44,147.84"
       id="path2536"
       style="fill:none;stroke:#000000;stroke-width:1.67999995;stroke-linecap:round;stroke-linejoin:miter;stroke-miterlimit:10;stroke-dasharray:none;stroke-opacity:1" /><path
       d="M 175.44,259.2 L 137.76,246.96"
       id="path2538"
       style="fill:none;stroke:#000000;stroke-width:1.67999995;stroke-linecap:round;stroke-linejoin:miter;stroke-miterlimit:10;stroke-dasharray:none;stroke-opacity:1" /><path
       d="M 198.72,227.04 L 175.44,259.2"
       id="path2540"
       style="fill:none;stroke:#000000;stroke-width:1.44000006;stroke-linecap:round;stroke-linejoin:miter;stroke-miterlimit:10;stroke-dasharray:none;stroke-opacity:1" /><path
       d="M 190.56,227.04 L 173.04,251.52"
       id="path2542"
       style="fill:none;stroke:#000000;stroke-width:1.44000006;stroke-linecap:round;stroke-linejoin:miter;stroke-miterlimit:10;stroke-dasharray:none;stroke-opacity:1" /><path
       d="M 163.92,198.72 L 137.76,207.36"
       id="path2544"
       style="fill:none;stroke:#000000;stroke-width:1.67999995;stroke-linecap:round;stroke-linejoin:miter;stroke-miterlimit:10;stroke-dasharray:none;stroke-opacity:1" /><path
       d="M 184.32,207.36 L 198.72,227.04"
       id="path2546"
       style="fill:none;stroke:#000000;stroke-width:1.67999995;stroke-linecap:round;stroke-linejoin:miter;stroke-miterlimit:10;stroke-dasharray:none;stroke-opacity:1" /><path
       d="M 174,144.24 L 137.76,128.16"
       id="path2548"
       style="fill:none;stroke:#000000;stroke-width:1.67999995;stroke-linecap:round;stroke-linejoin:miter;stroke-miterlimit:10;stroke-dasharray:none;stroke-opacity:1" /><path
       d="M 141.84,88.56 L 137.76,128.16"
       id="path2550"
       style="fill:none;stroke:#000000;stroke-width:1.44000006;stroke-linecap:round;stroke-linejoin:miter;stroke-miterlimit:10;stroke-dasharray:none;stroke-opacity:1" /><path
       d="M 147.84,94.08 L 144.72,124.08"
       id="path2552"
       style="fill:none;stroke:#000000;stroke-width:1.44000006;stroke-linecap:round;stroke-linejoin:miter;stroke-miterlimit:10;stroke-dasharray:none;stroke-opacity:1" /><path
       d="M 200.4,114.72 L 174,144.24"
       id="path2554"
       style="fill:none;stroke:#000000;stroke-width:1.44000006;stroke-linecap:round;stroke-linejoin:miter;stroke-miterlimit:10;stroke-dasharray:none;stroke-opacity:1" /><path
       d="M 192.24,114 L 172.32,136.32"
       id="path2556"
       style="fill:none;stroke:#000000;stroke-width:1.44000006;stroke-linecap:round;stroke-linejoin:miter;stroke-miterlimit:10;stroke-dasharray:none;stroke-opacity:1" /><path
       d="M 169.2,82.8 L 141.84,88.56"
       id="path2558"
       style="fill:none;stroke:#000000;stroke-width:1.67999995;stroke-linecap:round;stroke-linejoin:miter;stroke-miterlimit:10;stroke-dasharray:none;stroke-opacity:1" /><path
       d="M 187.68,92.88 L 200.4,114.72"
       id="path2560"
       style="fill:none;stroke:#000000;stroke-width:1.67999995;stroke-linecap:round;stroke-linejoin:miter;stroke-miterlimit:10;stroke-dasharray:none;stroke-opacity:1" /><path
       d="M 103.44,147.84 L 137.76,128.16"
       id="path2562"
       style="fill:none;stroke:#000000;stroke-width:1.67999995;stroke-linecap:round;stroke-linejoin:miter;stroke-miterlimit:10;stroke-dasharray:none;stroke-opacity:1" /><path
       d="M 101.76,150.48 L 81.12,138.48"
       id="path2564"
       style="fill:none;stroke:#000000;stroke-width:1.44000006;stroke-linecap:round;stroke-linejoin:miter;stroke-miterlimit:10;stroke-dasharray:none;stroke-opacity:1" /><path
       d="M 105.12,144.96 L 81.12,131.04"
       id="path2566"
       style="fill:none;stroke:#000000;stroke-width:1.44000006;stroke-linecap:round;stroke-linejoin:miter;stroke-miterlimit:10;stroke-dasharray:none;stroke-opacity:1" /><path
       d="M 69.12,207.36 L 46.8,194.4"
       id="path2568"
       style="fill:none;stroke:#000000;stroke-width:1.67999995;stroke-linecap:round;stroke-linejoin:miter;stroke-miterlimit:10;stroke-dasharray:none;stroke-opacity:1" /><path
       d="M 69.12,246.96 L 46.8,259.68"
       id="path2570"
       style="fill:none;stroke:#000000;stroke-width:1.67999995;stroke-linecap:round;stroke-linejoin:miter;stroke-miterlimit:10;stroke-dasharray:none;stroke-opacity:1" /><path
       d="M 67.68,328.8 L 46.8,316.8"
       id="path2572"
       style="fill:none;stroke:#000000;stroke-width:1.44000006;stroke-linecap:round;stroke-linejoin:miter;stroke-miterlimit:10;stroke-dasharray:none;stroke-opacity:1" /><path
       d="M 70.8,323.04 L 46.8,309.36"
       id="path2574"
       style="fill:none;stroke:#000000;stroke-width:1.44000006;stroke-linecap:round;stroke-linejoin:miter;stroke-miterlimit:10;stroke-dasharray:none;stroke-opacity:1" /><path
       d="M 70.8,368.4 L 46.8,382.08"
       id="path2576"
       style="fill:none;stroke:#000000;stroke-width:1.44000006;stroke-linecap:round;stroke-linejoin:miter;stroke-miterlimit:10;stroke-dasharray:none;stroke-opacity:1" /><path
       d="M 67.44,362.64 L 46.8,374.64"
       id="path2578"
       style="fill:none;stroke:#000000;stroke-width:1.44000006;stroke-linecap:round;stroke-linejoin:miter;stroke-miterlimit:10;stroke-dasharray:none;stroke-opacity:1" /><path
       d="M 198.72,345.84 L 218.88,345.84"
       id="path2580"
       style="fill:none;stroke:#000000;stroke-width:1.67999995;stroke-linecap:round;stroke-linejoin:miter;stroke-miterlimit:10;stroke-dasharray:none;stroke-opacity:1" /><path
       d="M 198.72,227.04 L 218.88,227.04"
       id="path2582"
       style="fill:none;stroke:#000000;stroke-width:1.67999995;stroke-linecap:round;stroke-linejoin:miter;stroke-miterlimit:10;stroke-dasharray:none;stroke-opacity:1" /><path
       d="M 200.4,114.72 L 220.56,116.88"
       id="path2584"
       style="fill:none;stroke:#000000;stroke-width:1.67999995;stroke-linecap:round;stroke-linejoin:miter;stroke-miterlimit:10;stroke-dasharray:none;stroke-opacity:1" /><path
       d="M 141.84,88.56 L 112.32,62.16"
       id="path2586"
       style="fill:none;stroke:#000000;stroke-width:1.67999995;stroke-linecap:round;stroke-linejoin:miter;stroke-miterlimit:10;stroke-dasharray:none;stroke-opacity:1" /><path
       d="M 113.28,65.28 L 86.64,73.92"
       id="path2588"
       style="fill:none;stroke:#000000;stroke-width:1.44000006;stroke-linecap:round;stroke-linejoin:miter;stroke-miterlimit:10;stroke-dasharray:none;stroke-opacity:1" /><path
       d="M 111.36,59.04 L 86.64,66.96"
       id="path2590"
       style="fill:none;stroke:#000000;stroke-width:1.44000006;stroke-linecap:round;stroke-linejoin:miter;stroke-miterlimit:10;stroke-dasharray:none;stroke-opacity:1" /><path
       d="M 112.32,62.16 L 118.08,35.76"
       id="path2592"
       style="fill:none;stroke:#000000;stroke-width:1.67999995;stroke-linecap:round;stroke-linejoin:miter;stroke-miterlimit:10;stroke-dasharray:none;stroke-opacity:1" /><path
       d="M 103.44,385.44 L 103.44,414.24"
       id="path2594"
       style="fill:none;stroke:#000000;stroke-width:1.67999995;stroke-linecap:round;stroke-linejoin:miter;stroke-miterlimit:10;stroke-dasharray:none;stroke-opacity:1" /><path
       d="M 103.44,425.04 L 98.64,414.24 L 108.24,414.24 L 103.44,425.04 z"
       id="path2596"
       style="fill:#000000;fill-opacity:1;fill-rule:evenodd;stroke:#000000;stroke-width:0.23999999;stroke-linecap:round;stroke-linejoin:miter;stroke-miterlimit:10;stroke-dasharray:none;stroke-opacity:1" /></g></svg>